<?xml version="1.0" ?><svg id="Layer_5" style="enable-background:new 0 0 62 62;" version="1.1" viewBox="0 0 62 62" xml:space="preserve" xmlns="http://www.w3.org/2000/svg" xmlns:xlink="http://www.w3.org/1999/xlink"><g><g><g><path d="M51,21c0,2.46-0.45,4.82-1.26,7H48c0-1.15-0.65-2.15-1.6-2.65C46.79,23.96,47,22.51,47,21     c0-8.84-7.16-16-16-16s-16,7.16-16,16c0,2.12,0.41,4.15,1.16,6H13v2.73c-1.28-2.64-2-5.6-2-8.73C11,9.95,19.95,1,31,1     S51,9.95,51,21z" style="fill:#CCD1D9;"/></g><g><path d="M45,34v1.28C41.39,38.82,36.45,41,31,41h-4v-4.5c1.28,0.32,2.62,0.5,4,0.5     c4.78,0,9.07-2.1,12-5.42V32C43,33.1,43.9,34,45,34z" style="fill:#CCD1D9;"/></g><g><path d="M31,5c8.84,0,16,7.16,16,16c0,1.51-0.21,2.96-0.6,4.35C45.98,25.13,45.51,25,45,25     c-0.89,0-1.69,0.38-2.23,1H37c-0.55,0-1,0.45-1,1v2c0,0.55,0.45,1,1,1h5.77c0.07,0.08,0.15,0.16,0.23,0.23v1.35     C40.07,34.9,35.78,37,31,37c-1.38,0-2.72-0.18-4-0.5V27h-4h-6h-0.84C15.41,25.15,15,23.12,15,21C15,12.16,22.16,5,31,5z" style="fill:#69D6F4;"/></g><g><path d="M43,31.58v-1.35c0.53,0.48,1.23,0.77,2,0.77c1.66,0,3-1.34,3-3h1.74H52     c0.83,0,1.58,0.34,2.12,0.88C54.66,29.42,55,30.17,55,31c0,1.66-1.34,3-3,3h-1h-6c-1.1,0-2-0.9-2-2V31.58z" style="fill:#FCD770;"/></g><g><path d="M53,45c-4.42,0-8,3.58-8,8V35.28V34h6c1.98,3.46,3.25,7.26,3.75,11.19C54.19,45.07,53.6,45,53,45z     " style="fill:#FCD770;"/></g><g><path d="M37.14,45.54L39,53h-4.17h-0.01c-0.29-0.86-0.98-1.54-1.84-1.83l-2.43-5.04     c-0.34-0.69-1.04-1.13-1.8-1.13H21h-9c-0.55,0-1-0.45-1-1v-2c0-0.55,0.45-1,1-1h1h14h4h0.32C34.07,41,36.47,42.87,37.14,45.54z" style="fill:#FCD770;"/></g><g><path d="M34.83,53H39h6c0,1.46,0.39,2.83,1.07,4H32c0.83,0,1.58-0.34,2.12-0.88     C34.66,55.58,35,54.83,35,54c0-0.35-0.06-0.69-0.18-1H34.83z" style="fill:#CCD1D9;"/></g><g><path d="M57,53h4c0,4.42-3.58,8-8,8c-2.96,0-5.55-1.61-6.93-4C45.39,55.83,45,54.46,45,53h4     c0,2.21,1.79,4,4,4S57,55.21,57,53z" style="fill:#969FAA;"/></g><g><path d="M28.75,51h-4.29c-0.69-1.2-1.98-2-3.46-2c-2.21,0-4,1.79-4,4s1.79,4,4,4h3h3.93     c-1.38,2.39-3.97,4-6.93,4c-4.42,0-8-3.58-8-8s3.58-8,8-8C24.73,45,27.86,47.55,28.75,51z" style="fill:#969FAA;"/></g><g><path d="M34.82,53c0.12,0.31,0.18,0.65,0.18,1c0,0.83-0.34,1.58-0.88,2.12C33.58,56.66,32.83,57,32,57h-1     h-3.07H24c-1.66,0-3-1.34-3-3c0-0.83,0.34-1.58,0.88-2.12C22.42,51.34,23.17,51,24,51h0.46h4.29H32c0.34,0,0.68,0.06,0.98,0.17     C33.84,51.46,34.53,52.14,34.82,53z" style="fill:#AAB2BD;"/></g><g><path d="M45,53c0-4.42,3.58-8,8-8c0.6,0,1.19,0.07,1.75,0.19C58.33,45.99,61,49.18,61,53h-4h-8H45z" style="fill:#AAB2BD;"/></g><g><path d="M42,28c0,0.77,0.29,1.47,0.77,2H37c-0.55,0-1-0.45-1-1v-2c0-0.55,0.45-1,1-1h5.77     C42.29,26.53,42,27.23,42,28z" style="fill:#CCD1D9;"/></g><g><path d="M46.4,25.35c0.95,0.5,1.6,1.5,1.6,2.65c0,1.66-1.34,3-3,3c-0.77,0-1.47-0.29-2-0.77     c-0.08-0.07-0.16-0.15-0.23-0.23C42.29,29.47,42,28.77,42,28s0.29-1.47,0.77-2c0.54-0.62,1.34-1,2.23-1     C45.51,25,45.98,25.13,46.4,25.35z" style="fill:#AAB2BD;"/></g><g><rect height="14" style="fill:#D3A06C;" width="14" x="13" y="27"/></g><g><rect height="4" style="fill:#B27946;" width="6" x="17" y="27"/></g><g><circle cx="31" cy="21" r="2" style="fill:#FF826E;"/></g></g><g><path d="M55.642,44.397c-0.497-3.31-1.501-6.484-3.005-9.461C54.539,34.628,56,32.988,56,31c0-2.206-1.794-4-4-4h-0.886    C51.693,25.06,52,23.05,52,21C52,9.421,42.58,0,31,0S10,9.421,10,21c0,1.06,0.08,2.122,0.236,3.159l1.978-0.299    C12.072,22.922,12,21.96,12,21c0-10.477,8.523-19,19-19s19,8.523,19,19c0,2.058-0.343,4.069-0.986,6h-0.156    c-0.215-0.826-0.686-1.541-1.325-2.07C47.837,23.647,48,22.33,48,21c0-9.374-7.626-17-17-17s-17,7.626-17,17    c0,1.712,0.258,3.387,0.755,5H12v14c-1.103,0-2,0.897-2,2v2c0,1.103,0.897,2,2,2h3.356C13.312,47.651,12,50.174,12,53    c0,4.963,4.038,9,9,9c3.001,0,5.797-1.526,7.461-4H31h1h13.522c1.617,2.41,4.365,4,7.478,4c4.962,0,9-4.037,9-9    C62,48.956,59.319,45.529,55.642,44.397z M59.92,52H46.08c0.488-3.386,3.401-6,6.92-6S59.432,48.614,59.92,52z M55.816,54    c-0.414,1.161-1.514,2-2.816,2s-2.402-0.839-2.816-2H55.816z M47,28c0,1.103-0.897,2-2,2s-2-0.897-2-2s0.897-2,2-2    S47,26.897,47,28z M41.142,29H37v-2h4.142C41.058,27.322,41,27.653,41,28S41.058,28.678,41.142,29z M53,44    c-2.826,0-5.349,1.312-7,3.356V35h4.404c1.546,2.83,2.609,5.857,3.159,9.029C53.376,44.017,53.19,44,53,44z M48.858,29H52    c1.103,0,2,0.897,2,2s-0.897,2-2,2h-7c-0.551,0-1-0.448-1-1v-0.142C44.322,31.942,44.653,32,45,32    C46.858,32,48.411,30.721,48.858,29z M16.047,22H20v-2h-3.949c0.225-3.383,1.569-6.457,3.674-8.861l2.79,2.79l1.414-1.414    l-2.79-2.79C23.543,7.62,26.617,6.275,30,6.051V10h2V6.051c3.383,0.225,6.457,1.569,8.861,3.674l-2.79,2.79l1.414,1.414l2.79-2.79    c2.105,2.404,3.45,5.478,3.674,8.861H42v2h3.966c-0.046,0.697-0.139,1.389-0.28,2.069C45.462,24.03,45.235,24,45,24    c-1.005,0-1.914,0.385-2.618,1H37c-1.103,0-2,0.897-2,2v2c0,1.103,0.897,2,2,2h5v1c0,1.302,0.839,2.402,2,2.816V52h-4.219    l-1.674-6.697C37.326,42.181,34.533,40,31.315,40H28V26H16.871C16.415,24.71,16.137,23.372,16.047,22z M18,28h4v2h-4V28z M14,28h2    v4h8v-4h2v12H14V28z M12,44v-2h16h3.315c2.298,0,4.293,1.558,4.851,3.787L37.719,52h-2.276c-0.402-0.689-0.996-1.245-1.718-1.593    l-2.279-4.714C30.948,44.665,29.889,44,28.746,44H12z M29.487,50c-0.565-1.603-1.562-2.973-2.835-4h2.094    c0.381,0,0.734,0.222,0.9,0.564L31.307,50H29.487z M21,60c-3.86,0-7-3.141-7-7s3.14-7,7-7c2.743,0,5.176,1.596,6.316,4h-2.321    c-0.937-1.245-2.418-2-3.995-2c-2.757,0-5,2.243-5,5s2.243,5,5,5h3h1.891C24.598,59.26,22.846,60,21,60z M20,54    c0,0.713,0.203,1.373,0.531,1.953C19.1,55.725,18,54.494,18,53c0-1.654,1.346-3,3-3c0.488,0,0.955,0.133,1.376,0.352    C20.979,50.977,20,52.373,20,54z M31,56h-7c-1.103,0-2-0.897-2-2s0.897-2,2-2h8c1.103,0,2,0.897,2,2s-0.897,2-2,2H31z M35.444,56    C35.788,55.409,36,54.732,36,54h8.059c0.077,0.695,0.24,1.362,0.466,2H35.444z M53,60c-3.519,0-6.432-2.614-6.92-6h2.021    c0.465,2.279,2.484,4,4.899,4s4.434-1.721,4.899-4h2.021C59.432,57.386,56.519,60,53,60z"/><path d="M3,32h5v-2H3c-0.551,0-1-0.448-1-1s0.449-1,1-1h7v-2H3c-1.654,0-3,1.346-3,3S1.346,32,3,32z"/><path d="M3,44h5v-2H3c-0.551,0-1-0.448-1-1s0.449-1,1-1h4c1.654,0,3-1.346,3-3s-1.346-3-3-3H3v2h4c0.551,0,1,0.448,1,1    s-0.449,1-1,1H3c-1.654,0-3,1.346-3,3S1.346,44,3,44z"/><path d="M7,50H3c-0.551,0-1-0.448-1-1s0.449-1,1-1h5v-2H3c-1.654,0-3,1.346-3,3s1.346,3,3,3h4c0.551,0,1,0.448,1,1s-0.449,1-1,1H4    v2h3c1.654,0,3-1.346,3-3S8.654,50,7,50z"/><path d="M31,24c1.302,0,2.402-0.839,2.816-2H38v-2h-4.184c-0.302-0.847-0.969-1.514-1.816-1.816V12h-2v6.184    c-1.161,0.414-2,1.514-2,2.816C28,22.654,29.346,24,31,24z M31,20c0.551,0,1,0.448,1,1s-0.449,1-1,1s-1-0.448-1-1S30.449,20,31,20    z"/></g></g></svg>