<?xml version="1.0" ?><svg id="Layer_5" style="enable-background:new 0 0 62 62;" version="1.1" viewBox="0 0 62 62" xml:space="preserve" xmlns="http://www.w3.org/2000/svg" xmlns:xlink="http://www.w3.org/1999/xlink"><g><g><g><circle cx="31" cy="31" r="23" style="fill:#69D6F4;"/></g><g><path d="M31,13v3l-7.03,2.64C23.79,17.71,22.98,17,22,17c-0.34,0-0.65,0.09-0.93,0.24     c0.01-0.03,0.02-0.06,0.03-0.09l0.8-2.8c0.07-0.23,0.1-0.47,0.1-0.72c0-0.22-0.03-0.43-0.08-0.63H31z" style="fill:#FF826E;"/></g><g><polygon points="23,4 23,7 17.68,7.76 17.3,4    " style="fill:#FF826E;"/></g><g><polygon points="14.7,4 14.32,7.76 9,7 9,4    " style="fill:#FF826E;"/></g><g><path d="M10.1,14.35l0.8,2.8c0.01,0.03,0.02,0.06,0.03,0.09C10.65,17.09,10.34,17,10,17     c-0.98,0-1.79,0.71-1.97,1.64L1,16v-3h9.08C10.03,13.2,10,13.41,10,13.63C10,13.88,10.03,14.12,10.1,14.35z" style="fill:#FF826E;"/></g><g><polygon points="17.3,4 17.68,7.76 18,11 14,11 14.32,7.76 14.7,4 15,1 17,1    " style="fill:#AAB2BD;"/></g><g><path d="M21.9,14.35l-0.8,2.8c-0.01,0.03-0.02,0.06-0.03,0.09c-0.22,0.73-0.58,1.38-1.06,1.92     C19.03,20.3,17.58,21,16,21c-1.18,0-2.3-0.39-3.2-1.07c-0.3-0.23-0.57-0.48-0.81-0.77c-0.48-0.54-0.84-1.19-1.06-1.92     c-0.01-0.03-0.02-0.06-0.03-0.09l-0.8-2.8c-0.07-0.23-0.1-0.47-0.1-0.72c0-0.22,0.03-0.43,0.08-0.63     c0.12-0.47,0.36-0.89,0.69-1.23C11.25,11.3,11.9,11,12.63,11H14h4h1.37c0.08,0,0.16,0,0.24,0.01c1.12,0.1,2.05,0.92,2.31,1.99     c0.05,0.2,0.08,0.41,0.08,0.63C22,13.88,21.97,14.12,21.9,14.35z" style="fill:#CCD1D9;"/></g><g><path d="M22,17c0.98,0,1.79,0.71,1.97,1.64C23.99,18.76,24,18.88,24,19c0,1.1-0.9,2-2,2     c-1.05,0-1.9-0.81-1.99-1.84c0.48-0.54,0.84-1.19,1.06-1.92C21.35,17.09,21.66,17,22,17z" style="fill:#969FAA;"/></g><g><path d="M10.93,17.24c0.22,0.73,0.58,1.38,1.06,1.92c-0.08,0.93-0.79,1.69-1.7,1.81     C10.2,20.99,10.1,21,10,21c-1.1,0-2-0.9-2-2c0-0.12,0.01-0.24,0.03-0.36C8.21,17.71,9.02,17,10,17     C10.34,17,10.65,17.09,10.93,17.24z" style="fill:#969FAA;"/></g><g><polygon points="53.21,37 57,37 59,37 59,45 50,45 51,37 53,37    " style="fill:#CF9E76;"/></g><g><rect height="6" style="fill:#CF9E76;" width="8" x="35" y="37"/></g><g><polygon points="45,43 45,49 33,49 33,43 35,43 43,43    " style="fill:#DFB28B;"/></g><g><path d="M59,45h2c0,4.57-2.55,8.53-6.3,10.57c0-0.01-0.01,0-0.01,0C54.03,55.24,53.23,55,52.01,55     c-3.5,0-3.5,2-7,2s-3.5-2-7.01-2c-1.54,0-2.4,0.39-3.18,0.82c-0.81-0.5-1.52-1.13-2.11-1.88c-0.24-0.3-0.46-0.63-0.66-0.97     C31.38,51.8,31,50.44,31,49h2h12l3-4h2H59z" style="fill:#E6E9ED;"/></g><g><path d="M59,57v4c-2.81,0-4.42-0.92-5.48-1.53C52.83,59.08,52.69,59,52.01,59c-0.69,0-0.83,0.08-1.52,0.47     C49.43,60.08,47.82,61,45.01,61c-2.81,0-4.42-0.92-5.49-1.53C38.84,59.08,38.69,59,38,59s-0.83,0.08-1.51,0.47     C35.42,60.08,33.81,61,31,61v-4c1.96,0,2.82-0.63,3.82-1.18C35.6,55.39,36.46,55,38,55c3.51,0,3.51,2,7.01,2s3.5-2,7-2     c1.22,0,2.02,0.24,2.68,0.57c0,0,0.01-0.01,0.01,0C55.93,56.16,56.73,57,59,57z" style="fill:#69D6F4;"/></g></g><g><path d="M62,45v-1h-2v-8h-2v-4h-2v4h-2v-2h-2v2h-1.883l-1,8H47.5L46,46v-4h-2v-6H34v6h-2v6h-2v1c0,2.586,1.094,4.969,2.967,6.658    C32.457,55.863,31.861,56,31,56v2c2.017,0,3.069-0.601,3.998-1.132C35.813,56.402,36.519,56,38.004,56s2.19,0.402,3.006,0.868    C41.938,57.399,42.991,58,45.008,58c2.016,0,3.068-0.602,3.996-1.132C49.819,56.402,50.523,56,52.007,56    c1.482,0,2.187,0.402,3.001,0.868C55.935,57.398,56.986,58,59,58v-2c-1.071,0-1.734-0.211-2.328-0.504    C59.996,53.067,62,49.187,62,45z M51.883,38H58v6h-6.867L51.883,38z M36,38h6v4h-6V38z M34,44h10v4H34V44z M48.012,55.132    C47.196,55.598,46.492,56,45.008,56c-1.485,0-2.19-0.402-3.006-0.868C41.073,54.601,40.021,54,38.004,54    c-1.417,0-2.354,0.298-3.111,0.659c-1.546-1.121-2.558-2.787-2.823-4.659H45.5l3-4h11.455c-0.318,3.501-2.304,6.633-5.347,8.443    C53.94,54.188,53.125,54,52.007,54C49.992,54,48.939,54.601,48.012,55.132z"/><path d="M52.007,58c-0.905,0-1.224,0.155-2.011,0.604C48.966,59.193,47.557,60,45.008,60c-2.547,0-3.959-0.806-4.99-1.395    C39.23,58.155,38.912,58,38.004,58s-1.227,0.155-2.015,0.605C34.959,59.194,33.547,60,31,60v2c3.078,0,4.896-1.038,5.981-1.658    C37.58,60,37.58,60,38.004,60s0.424,0,1.022,0.342C40.112,60.962,41.93,62,45.008,62c3.08,0,4.896-1.039,5.981-1.659    C51.586,60,51.586,60,52.007,60c0.42,0,0.42,0,1.017,0.342C54.109,60.962,55.925,62,59,62v-2c-2.544,0-3.954-0.806-4.985-1.396    C53.229,58.155,52.912,58,52.007,58z"/><rect height="2" width="6" x="13" y="14"/><path d="M12.011,42h10.958c0.728,3.912,1.836,7.254,3.233,9.535l1.705-1.044c-1.24-2.026-2.236-4.992-2.913-8.491H30v-2h-5.349    c-0.376-2.495-0.596-5.202-0.639-8h13.966c-0.01,0.655-0.015,1.316-0.044,1.951l1.998,0.092c0.03-0.666,0.036-1.357,0.046-2.043    H55v-1C55,17.767,44.233,7,31,7c-1.762,0-3.52,0.192-5.227,0.571l0.434,1.952C27.771,9.176,29.384,9,31,9    c2.259,0,4.691,4.21,6.011,11H24.816c0.076-0.213,0.125-0.437,0.151-0.669L32,16.693V12h-9.405c-0.6-1.181-1.814-2-3.227-2h-0.463    l-0.138-1.385L24,7.867V3h-5.795l-0.3-3h-3.811l-0.3,3H8v4.867l5.233,0.748L13.095,10h-0.463c-1.413,0-2.627,0.819-3.227,2H0    v4.693l7.033,2.638C7.201,20.828,8.459,22,10,22c0.956,0,1.815-0.462,2.365-1.177C13.407,21.563,14.665,22,16,22    s2.593-0.438,3.635-1.177C20.185,21.538,21.044,22,22,22h15.356c0.364,2.415,0.583,5.107,0.626,8H24.027    c0.031-2.009,0.133-3.991,0.344-5.89l-1.988-0.221c-0.219,1.972-0.325,4.028-0.356,6.111H9.038    c0.087-1.943,0.411-3.856,0.999-5.696l-1.904-0.608C7.381,26.048,7,28.505,7,31c0,12.374,9.646,22.878,21.962,23.915l0.168-1.993    C21.805,52.305,15.528,48.023,12.011,42z M30,15.307l-5.49,2.058c-0.456-0.699-1.196-1.187-2.055-1.32l0.404-1.416    c0.059-0.206,0.093-0.417,0.115-0.63H30V15.307z M22,5v1.133l-3.432,0.491L18.405,5H22z M10,6.133V5h3.595l-0.162,1.623L10,6.133z     M15.905,2h0.189l0.8,8h-1.79L15.905,2z M2,14h7.026c0.022,0.212,0.055,0.423,0.114,0.629l0.405,1.417    c-0.858,0.132-1.598,0.621-2.054,1.32L2,15.307V14z M10,20c-0.552,0-1-0.449-1-1c0-0.606,0.556-1.092,1.164-0.979    c0.195,0.488,0.438,0.948,0.741,1.364C10.753,19.745,10.406,20,10,20z M11.863,16.879l-0.801-2.8    C11.021,13.934,11,13.783,11,13.631C11,12.732,11.732,12,12.632,12h6.736C20.268,12,21,12.732,21,13.631    c0,0.151-0.021,0.302-0.063,0.448l-0.8,2.799C19.612,18.717,17.911,20,16,20S12.388,18.717,11.863,16.879z M21.095,19.385    c0.303-0.416,0.546-0.875,0.741-1.364C22.442,17.909,23,18.395,23,19c0,0.551-0.448,1-1,1C21.594,20,21.247,19.745,21.095,19.385z     M22.634,40H10.977c-1.124-2.473-1.798-5.173-1.929-8h12.963C22.054,34.779,22.267,37.484,22.634,40z M35.087,9.391    C41.471,10.596,46.89,14.56,50.045,20H39.038C38.221,15.564,36.894,11.725,35.087,9.391z M39.365,22h11.698    c1.109,2.462,1.786,5.16,1.914,8H39.992C39.95,27.298,39.738,24.578,39.365,22z"/><path d="M56.118,24.259l0.62,2.318l4.126-7.073l-1.729-1.008l-1.774,3.044c-1.921-5.343-5.457-10.026-10.125-13.354l-1.16,1.629    C50.997,13.323,54.563,18.453,56.118,24.259z"/><path d="M45.52,7.054c-0.666-0.405-1.364-0.79-2.074-1.143l-0.891,1.791c0.659,0.328,1.308,0.685,1.926,1.061L45.52,7.054z"/><path d="M41.371,4.984c-0.681-0.271-1.379-0.519-2.075-0.734l-0.592,1.911c0.646,0.2,1.294,0.429,1.925,0.681L41.371,4.984z"/><path d="M5.882,37.741l-0.62-2.318l-4.126,7.073l1.729,1.008l1.774-3.044c1.921,5.343,5.457,10.026,10.125,13.354l1.16-1.629    C11.003,48.677,7.437,43.547,5.882,37.741z"/><path d="M16.48,54.946c0.666,0.405,1.364,0.79,2.074,1.143l0.891-1.791c-0.659-0.328-1.308-0.685-1.926-1.061L16.48,54.946z"/><path d="M20.629,57.016c0.681,0.271,1.379,0.519,2.075,0.734l0.592-1.911c-0.646-0.2-1.294-0.429-1.925-0.681L20.629,57.016z"/></g></g></svg>