<?xml version="1.0" ?><svg id="Layer_5" style="enable-background:new 0 0 52.254 62;" version="1.1" viewBox="0 0 52.254 62" xml:space="preserve" xmlns="http://www.w3.org/2000/svg" xmlns:xlink="http://www.w3.org/1999/xlink"><g><g><g><rect height="4" style="fill:#CCD1D9;" width="6" x="40.127" y="46"/></g><g><rect height="4" style="fill:#CCD1D9;" width="6" x="6.127" y="46"/></g><g><path d="M14.107,28c-0.16-2.74-1.32-5.34-3.27-7.29c-0.46-0.46-1.07-0.71-1.71-0.71s-1.25,0.25-1.71,0.71     c-1.05,1.05-1.88,2.3-2.44,3.65c-0.47,1.15-0.76,2.38-0.83,3.64c-0.01,0.22-0.02,0.44-0.02,0.66V46h10V28.66     C14.127,28.44,14.117,28.22,14.107,28z" style="fill:#AAB2BD;"/></g><g><path d="M48.107,28c-0.16-2.74-1.32-5.34-3.27-7.29c-0.46-0.46-1.07-0.71-1.71-0.71s-1.25,0.25-1.71,0.71     c-1.05,1.05-1.88,2.3-2.44,3.65c-0.47,1.15-0.76,2.38-0.83,3.64c-0.01,0.22-0.02,0.44-0.02,0.66V46h10V28.66     C48.127,28.44,48.117,28.22,48.107,28z" style="fill:#AAB2BD;"/></g><g><polygon points="50.127,56 47.127,57 46.127,60 43.127,57 40.127,60 39.127,57 36.127,56 40.127,53      46.127,53    " style="fill:#FF826E;"/></g><g><polygon points="16.127,56 13.127,57 12.127,60 9.127,57 6.127,60 5.127,57 2.127,56 6.127,53 12.127,53         " style="fill:#FF826E;"/></g><g><path d="M18.127,11v2h-2c-0.22,0-0.43,0.04-0.63,0.1c-0.89-1.36-1.37-2.96-1.37-4.61     c0-4.14,3.35-7.49,7.49-7.49h8.74c1.65,0,3.12,1.06,3.65,2.63L34.127,4l1.09,0.27c0.85,0.21,1.58,0.71,2.1,1.37     c0.51,0.66,0.81,1.48,0.81,2.36c0,1.82-0.49,3.56-1.39,5.09c-0.19-0.06-0.4-0.09-0.61-0.09h-2v-1.74c0-0.9-0.36-1.72-0.96-2.3     c-0.58-0.6-1.4-0.96-2.3-0.96c-1.09,0-2.1,0.54-2.71,1.45l-0.48,0.72c-0.34,0.52-0.93,0.83-1.55,0.83s-1.21-0.31-1.55-0.83     L23.127,8l-0.34,0.51c-0.52,0.77-1.22,1.4-2.02,1.83C19.967,10.76,19.067,11,18.127,11z" style="fill:#656D78;"/></g><g><path d="M18.127,34v5c0-0.55-0.45-1-1-1h-1c-1.1,0-2,0.9-2,2v-2.58c0-3.75,2.6-7,6.26-7.81l2.74-0.61     c0.64,0.64,1.51,1,2.41,1h1.18c0.9,0,1.77-0.36,2.41-1l2.74,0.61c3.66,0.81,6.26,4.06,6.26,7.81V40c0-1.1-0.9-2-2-2h-1     c-0.55,0-1,0.45-1,1v-5h-8h-4H18.127z" style="fill:#FCD770;"/></g><g><polygon points="26.127,61 20.127,61 20.127,48 32.127,48 32.127,61    " style="fill:#969FAA;"/></g><g><rect height="14" style="fill:#D3A06C;" width="16" x="18.127" y="34"/></g><g><rect height="6" style="fill:#B27946;" width="4" x="22.127" y="34"/></g><g><path d="M38.127,41v1c0,1.1-0.9,2-2,2h-1c-0.55,0-1-0.45-1-1v-4c0-0.55,0.45-1,1-1h1c1.1,0,2,0.9,2,2V41z" style="fill:#F0D0B4;"/></g><g><path d="M17.127,38c0.55,0,1,0.45,1,1v4c0,0.55-0.45,1-1,1h-1c-1.1,0-2-0.9-2-2v-1v-1c0-1.1,0.9-2,2-2     H17.127z" style="fill:#F0D0B4;"/></g><g><path d="M36.737,13.1c0.81,0.25,1.39,1.01,1.39,1.9c0,0.55-0.22,1.05-0.58,1.41     c-0.36,0.37-0.86,0.59-1.42,0.59h-2v-4h2c0.21,0,0.42,0.03,0.61,0.09V13.1z" style="fill:#F0D0B4;"/></g><g><path d="M26.127,11c0.62,0,1.21-0.31,1.55-0.83l0.48-0.72c0.61-0.91,1.62-1.45,2.71-1.45     c0.9,0,1.72,0.36,2.3,0.96c0.6,0.58,0.96,1.4,0.96,2.3V13v4v2.04c0,2.46-1.29,4.73-3.4,6l-1.11,0.67     c-0.31,0.18-0.49,0.5-0.49,0.86V29c-0.64,0.64-1.51,1-2.41,1h-1.18c-0.9,0-1.77-0.36-2.41-1v-2.43c0-0.36-0.18-0.68-0.49-0.86     l-1.11-0.67c-2.11-1.27-3.4-3.54-3.4-6V17v-4v-2c0.94,0,1.84-0.24,2.64-0.66c0.8-0.43,1.5-1.06,2.02-1.83L23.127,8l1.45,2.17     C24.917,10.69,25.507,11,26.127,11z" style="fill:#F0D0B4;"/></g><g><path d="M18.127,13v4h-2c-1.1,0-2-0.9-2-2c0-0.55,0.22-1.05,0.59-1.41c0.22-0.22,0.48-0.39,0.78-0.49     c0.2-0.06,0.41-0.1,0.63-0.1H18.127z" style="fill:#F0D0B4;"/></g></g><g><path d="M25.574,19.895l1.105-0.553c0.478-0.239,0.834-0.65,1.003-1.157s0.131-1.049-0.108-1.527l-0.447-0.894V14h-2v2    c0,0.155,0.036,0.309,0.105,0.447l0.553,1.105l-1.105,0.553L25.574,19.895z"/><path d="M29.728,22.8l-1.201-1.6c-1.393,1.046-3.406,1.046-4.799,0l-1.201,1.6c1.046,0.785,2.291,1.2,3.601,1.2    S28.682,23.585,29.728,22.8z"/><path d="M35.127,49v-4h1c0.352,0,0.686-0.072,1-0.184V47h2v4h8v-4h2V28.657c0-3.27-1.273-6.344-3.586-8.657v0    c-1.291-1.289-3.537-1.29-4.828,0c-2.313,2.313-3.586,5.387-3.586,8.657v3.083c-1.242-1.53-2.99-2.651-5.048-3.108l-1.952-0.434    l0.001-1.631l1.115-0.669c2.396-1.438,3.884-4.066,3.884-6.86V18h1c1.654,0,3-1.346,3-3c0-0.922-0.427-1.738-1.083-2.289    c0.698-1.471,1.083-3.075,1.083-4.711c0-2.226-1.508-4.158-3.668-4.698l-0.56-0.14C34.198,1.264,32.394,0,30.358,0h-8.746    c-4.679,0-8.485,3.807-8.485,8.485c0,1.492,0.366,2.944,1.035,4.266c-0.629,0.55-1.035,1.349-1.035,2.248c0,1.654,1.346,3,3,3    h1.001l0,1.036c-0.001,2.795,1.487,5.424,3.884,6.861l1.115,0.669v1.632l-1.952,0.434c-2.058,0.457-3.806,1.578-5.048,3.108    v-3.083c0-3.27-1.273-6.344-3.586-8.657v0c-1.291-1.289-3.537-1.29-4.828,0c-2.313,2.313-3.586,5.387-3.586,8.657V47h2v4h8v-4h2    v-2.184c0.314,0.112,0.648,0.184,1,0.184h1v4h2v13h14V49H35.127z M33.127,47h-14v-4v-4v-4h2v6h6v-6h6v4v4V47z M23.127,35h2v4h-2    V35z M36.127,43h-1v-4h1c0.552,0,1,0.448,1,1v1v1C37.127,42.552,36.679,43,36.127,43z M45.127,49h-4v-2h4V49z M39.127,45v-2h8v2    H39.127z M42.127,21.415c0.534-0.535,1.464-0.535,2,0c1.538,1.538,2.515,3.481,2.856,5.586h-7.712    C39.612,24.895,40.589,22.952,42.127,21.415z M39.127,29h8v12h-8v-1v-2.582V29z M36.127,16h-1v-2h1c0.552,0,1,0.449,1,1    S36.679,16,36.127,16z M16.127,16c-0.552,0-1-0.449-1-1s0.448-1,1-1h1.002l0,2H16.127z M17.129,10l0,2h-1.002    c-0.033,0-0.064,0.009-0.097,0.01c-0.581-1.085-0.903-2.286-0.903-3.524C15.127,4.909,18.036,2,21.612,2h8.746    c1.226,0,2.309,0.781,2.695,1.943l0.298,0.894l1.623,0.406C36.242,5.56,37.127,6.693,37.127,8c0,1.395-0.343,2.761-0.961,4.004    c-0.013,0-0.026-0.004-0.039-0.004h-1v-0.743C35.127,8.91,33.218,7,30.87,7c-1.427,0-2.751,0.708-3.542,1.896L26.85,9.613    c-0.322,0.484-1.123,0.484-1.445,0l-2.277-3.416l-1.169,1.753C21.103,9.234,19.671,10,18.129,10H17.129z M22.041,24.182    c-1.798-1.078-2.914-3.05-2.913-5.146l0.001-7.112c1.536-0.234,2.938-1.002,3.964-2.173l0.647,0.971    c0.533,0.8,1.426,1.277,2.387,1.277s1.854-0.478,2.387-1.277l0.479-0.718C29.411,9.375,30.113,9,30.87,9    c1.244,0,2.257,1.012,2.257,2.257v7.78c0,2.095-1.116,4.067-2.913,5.145L29.1,24.851c-0.6,0.359-0.973,1.016-0.973,1.715v1.966    C27.717,28.829,27.222,29,26.714,29h-1.173c-0.516,0-1.004-0.168-1.414-0.466v-1.968c0-0.698-0.372-1.354-0.971-1.714    L22.041,24.182z M20.608,30.584l2.266-0.503C23.64,30.667,24.561,31,25.541,31h1.173c0.964,0,1.9-0.34,2.664-0.92l2.268,0.504    c3.148,0.7,5.353,3.394,5.461,6.594C36.798,37.07,36.472,37,36.127,37h-1v-4h-18v4h-1c-0.345,0-0.671,0.07-0.98,0.178    C15.255,33.978,17.46,31.284,20.608,30.584z M13.127,40v1h-8V29h8v8.417V40z M8.127,21.415c0.534-0.535,1.464-0.535,2,0    c1.538,1.538,2.515,3.481,2.856,5.586H5.271C5.612,24.895,6.589,22.952,8.127,21.415z M11.127,49h-4v-2h4V49z M5.127,45v-2h8v2    H5.127z M16.127,43c-0.552,0-1-0.448-1-1v-1v-1c0-0.552,0.448-1,1-1h1v4H16.127z M31.127,60h-4v-4.764    c0-0.998,0.555-1.896,1.447-2.342l-0.895-1.789c-0.619,0.31-1.141,0.746-1.553,1.263c-0.411-0.518-0.934-0.954-1.553-1.263    l-0.895,1.789c0.893,0.446,1.447,1.344,1.447,2.342V60h-4V49h10V60z"/><polygon points="46.727,52.2 45.527,53.8 48,55.655 46.336,56.209 45.689,58.148 43.127,55.586 40.564,58.148 39.918,56.209     38.254,55.655 40.727,53.8 39.527,52.2 34,56.345 38.336,57.791 39.689,61.852 43.127,58.414 46.564,61.852 47.918,57.791     52.254,56.345   "/><polygon points="11.527,53.8 14,55.655 12.336,56.209 11.689,58.148 9.127,55.586 6.564,58.148 5.918,56.209 4.254,55.655     6.727,53.8 5.527,52.2 0,56.345 4.336,57.791 5.689,61.852 9.127,58.414 12.564,61.852 13.918,57.791 18.254,56.345 12.727,52.2       "/></g></g></svg>