<?xml version="1.0" ?><svg id="Layer_5" style="enable-background:new 0 0 62 61.059;" version="1.1" viewBox="0 0 62 61.059" xml:space="preserve" xmlns="http://www.w3.org/2000/svg" xmlns:xlink="http://www.w3.org/1999/xlink"><g><g><g><rect height="39.529" style="fill:#E6E9ED;" width="52" x="1" y="9.235"/></g><g><path d="M22.99,8.51l15.72,6.99L53,10v8l-10.27,3.95L53,26.52v8.17l-20.13-8.95l-13.79,5.31L32.48,37H27     c-1.1,0-2,0.9-2,2v2.85L9.23,34.84L1,38v-8l9.84-3.78C12,26.71,13.44,27,15,27c3.87,0,7-1.79,7-4c0-0.34-0.08-0.68-0.22-0.99     l7.07-2.72l-8.63-3.84c0.82-1.44,1.55-2.92,2.2-4.44l0.02-0.07C22.78,10.16,22.96,9.34,22.99,8.51z" style="fill:#5CD6B3;"/></g><g><path d="M23,8.25c0,0.09,0,0.17-0.01,0.26c-0.03,0.83-0.21,1.65-0.55,2.43l-0.02,0.07     c-0.65,1.52-1.38,3-2.2,4.44c-0.74,1.33-1.55,2.62-2.43,3.88C16.93,20.59,16,21.82,15,23c-1-1.18-1.93-2.41-2.79-3.67     c-1.83-2.63-3.38-5.41-4.63-8.32l-0.02-0.07C7.19,10.08,7,9.17,7,8.25C7,7.82,7.04,7.41,7.12,7c0.63-3.41,3.81-6,7.65-6h0.46     c2.15,0,4.09,0.81,5.49,2.12C21.83,4.15,22.61,5.5,22.88,7C22.96,7.41,23,7.82,23,8.25z" style="fill:#FCD770;"/></g><g><circle cx="15" cy="9" r="4" style="fill:#FF826E;"/></g><g><path d="M21.78,22.01C21.92,22.32,22,22.66,22,23c0,2.21-3.13,4-7,4c-1.56,0-3-0.29-4.16-0.78     C9.12,25.49,8,24.32,8,23c0-1.64,1.73-3.05,4.21-3.67C13.07,20.59,14,21.82,15,23c1-1.18,1.93-2.41,2.79-3.67     C19.75,19.82,21.24,20.8,21.78,22.01z" style="fill:#AAB2BD;"/></g><g><path d="M49,41v16H39c0-2.21-1.79-4-4-4s-4,1.79-4,4h-4c-1.1,0-2-0.9-2-2v-6v-7.15V39c0-1.1,0.9-2,2-2     h5.48H47c1.1,0,2,0.9,2,2V41z" style="fill:#FF826E;"/></g><g><path d="M53,53c-2.21,0-4,1.79-4,4V41h4h4c2.21,0,4,1.79,4,4h-5c-1.66,0-3,1.34-3,3v1h8v6c0,1.1-0.9,2-2,2     h-2C57,54.79,55.21,53,53,53z" style="fill:#FC6E51;"/></g><g><path d="M61,45v4h-8v-1c0-1.66,1.34-3,3-3H61z" style="fill:#69D6F4;"/></g><g><circle cx="53" cy="57" r="4" style="fill:#969FAA;"/></g><g><circle cx="35" cy="57" r="4" style="fill:#969FAA;"/></g></g><g><path d="M35,55.353c-0.552,0-1,0.421-1,0.941c0,0.52,0.448,0.941,1,0.941s1-0.421,1-0.941C36,55.774,35.552,55.353,35,55.353z"/><path d="M53,55.353c-0.552,0-1,0.421-1,0.941c0,0.52,0.448,0.941,1,0.941s1-0.421,1-0.941C54,55.774,53.552,55.353,53,55.353z"/><path d="M57,40h-3V6H23.661c-1.044-3.458-4.423-6-8.428-6h-0.465c-4.005,0-7.385,2.542-8.428,6H0v44h24v5c0,1.654,1.346,3,3,3    h3.346c0.723,1.784,2.53,3.059,4.654,3.059s3.931-1.274,4.654-3.059h8.691c0.723,1.784,2.53,3.059,4.654,3.059    s3.931-1.274,4.654-3.059H59c1.654,0,3-1.346,3-3V45C62,42.243,59.757,40,57,40z M50,40v-1c0-1.654-1.346-3-3-3H32.69    l-10.997-4.888l11.151-4.289L52,35.338V40H50z M24,39v1.309L9.253,33.755L2,36.544v-5.857l8.841-3.401    C12.047,27.738,13.464,28,15,28c4.486,0,8-2.196,8-5c0-0.127-0.03-0.249-0.044-0.373l8.508-3.272l-9.85-4.378    c0.63-1.188,1.216-2.401,1.749-3.644c0.191-0.445,0.333-0.902,0.439-1.366l14.878,6.612L52,11.456v5.857l-11.885,4.572L52,27.167    v5.982l-19.101-8.489l-16.431,6.32L27.765,36H27C25.346,36,24,37.346,24,39z M14.235,23.645L15,24.553l0.765-0.908    c0.858-1.019,1.668-2.071,2.437-3.148C19.877,21.058,21,22.039,21,23c0,1.419-2.464,3-6,3s-6-1.581-6-3    c0-0.961,1.123-1.941,2.798-2.503C12.567,21.573,13.377,22.625,14.235,23.645z M20.636,16.731l5.604,2.49l-4.055,1.558    c-0.628-0.808-1.603-1.491-2.826-1.981C19.802,18.12,20.227,17.431,20.636,16.731z M52,24.978l-6.66-2.96L52,19.456V24.978z     M52,9.313l-13.266,5.102L24.301,8H52V9.313z M14.768,2h0.465C18.964,2,22,4.803,22,8.247c0,0.79-0.16,1.563-0.503,2.365    c-1.653,3.855-3.836,7.488-6.497,10.813c-2.661-3.325-4.846-6.963-6.525-10.881C8.16,9.811,8,9.037,8,8.247    C8,4.803,11.036,2,14.768,2z M6.013,8C6.011,8.083,6,8.164,6,8.247c0,1.063,0.214,2.102,0.665,3.152    c1.102,2.572,2.436,5.043,3.976,7.4C8.397,19.699,7,21.259,7,23c0,1.141,0.59,2.179,1.583,3.011L2,28.544V8H6.013z M2,48v-9.313    l7.198-2.768L24,42.498V48H2z M35,59.059c-1.654,0-3-1.24-3-2.765s1.346-2.765,3-2.765s3,1.24,3,2.765S36.654,59.059,35,59.059z     M35,51.529c-2.651,0-4.806,1.983-4.969,4.471H27c-0.552,0-1-0.448-1-1V39c0-0.552,0.448-1,1-1h20c0.552,0,1,0.448,1,1v17h-8.031    C39.806,53.512,37.651,51.529,35,51.529z M53,59.059c-1.654,0-3-1.24-3-2.765s1.346-2.765,3-2.765s3,1.24,3,2.765    S54.654,59.059,53,59.059z M59,56h-1.031c-0.163-2.488-2.318-4.471-4.969-4.471c-1.13,0-2.162,0.373-3,0.977V42h7    c1.302,0,2.402,0.839,2.816,2H56c-2.206,0-4,1.794-4,4v2h8v5C60,55.552,59.552,56,59,56z M60,46v2h-6c0-1.103,0.897-2,2-2H60z"/><path d="M15,15.883c2.757,0,5-2.138,5-4.766c0-2.627-2.243-4.765-5-4.765s-5,2.138-5,4.765C10,13.745,12.243,15.883,15,15.883z     M15,8.353c1.654,0,3,1.24,3,2.765c0,1.525-1.346,2.766-3,2.766s-3-1.24-3-2.766C12,9.593,13.346,8.353,15,8.353z"/></g></g></svg>