<?xml version="1.0" ?><svg id="Layer_5" style="enable-background:new 0 0 61.999 61.988;" version="1.1" viewBox="0 0 61.999 61.988" xml:space="preserve" xmlns="http://www.w3.org/2000/svg" xmlns:xlink="http://www.w3.org/1999/xlink"><g><g><g><polygon points="54.97,16.988 13.03,16.988 11,18.148 11,60.988 57,60.988 57,18.148    " style="fill:#E6E9ED;"/></g><g><path d="M60.01,15.258c0.95,0.56,1.27,1.78,0.72,2.74c-0.36,0.61-1.02,0.99-1.73,0.99     c-0.35,0-0.7-0.09-1.01-0.27L57,18.148l-2.03-1.16L34,4.988l-20.97,12L11,18.148l-0.99,0.57c-0.31,0.18-0.65,0.27-1.01,0.27     c-0.71,0-1.37-0.38-1.73-0.99c-0.55-0.96-0.23-2.18,0.72-2.74l24.14-13.77c0.57-0.33,1.22-0.5,1.87-0.5c0.66,0,1.3,0.17,1.87,0.5     L60.01,15.258z" style="fill:#FF826E;"/></g><g><circle cx="34" cy="10.988" r="2" style="fill:#69D6F4;"/></g><g><path d="M54.97,16.988H13.03l20.97-12L54.97,16.988z" style="fill:#FC6E51;"/></g><g><polygon points="49,26.988 49,40.988 35,40.988 35,26.988 39,26.988 39,30.988 45,30.988 45,26.988    " style="fill:#D3A06C;"/></g><g><rect height="4" style="fill:#B27946;" width="6" x="39" y="26.988"/></g><g><path d="M19,31.988c0,1.1-0.9,2-2,2h-6h-1c-1.66,0-3-1.34-3-3c0-0.83,0.34-1.58,0.88-2.12     c0.54-0.54,1.29-0.88,2.12-0.88h1h3c0,1.66,1.34,3,3,3c0.77,0,1.47-0.29,2-0.77V31.988z" style="fill:#FCD770;"/></g><g><path d="M25,29.988h-5.77c0.48-0.53,0.77-1.23,0.77-2s-0.29-1.47-0.77-2H25c0.55,0,1,0.45,1,1v2     C26,29.538,25.55,29.988,25,29.988z" style="fill:#AAB2BD;"/></g><g><path d="M19.23,25.988c0.48,0.53,0.77,1.23,0.77,2s-0.29,1.47-0.77,2c-0.07,0.08-0.15,0.16-0.23,0.23     c-0.53,0.48-1.23,0.77-2,0.77c-1.66,0-3-1.34-3-3s1.34-3,3-3C17.89,24.988,18.69,25.368,19.23,25.988z" style="fill:#FF826E;"/></g><g><path d="M51,41.988v2c0,0.55-0.45,1-1,1h-9h-7.75c-0.76,0-1.46,0.44-1.8,1.13l-2.43,5.04     c-0.86,0.29-1.55,0.97-1.84,1.83h-0.01H23l1.86-7.46c0.67-2.67,3.07-4.54,5.82-4.54H35h14h1C50.55,40.988,51,41.438,51,41.988z" style="fill:#FCD770;"/></g><g><path d="M17,33.988v19c0-4.42-3.58-8-8-8c-0.6,0-1.19,0.07-1.75,0.19c0.5-3.93,1.77-7.73,3.75-11.19H17z" style="fill:#FCD770;"/></g><g><path d="M40.12,51.868c0.54,0.54,0.88,1.29,0.88,2.12c0,1.66-1.34,3-3,3h-3.93H31h-1     c-0.83,0-1.58-0.34-2.12-0.88c-0.54-0.54-0.88-1.29-0.88-2.12c0-0.35,0.06-0.69,0.18-1c0.29-0.86,0.98-1.54,1.84-1.83     c0.3-0.11,0.64-0.17,0.98-0.17h3.25h4.29H38C38.83,50.988,39.58,51.328,40.12,51.868z" style="fill:#CCD1D9;"/></g><g><path d="M27,53.988c0,0.83,0.34,1.58,0.88,2.12c0.54,0.54,1.29,0.88,2.12,0.88H15.93     c0.68-1.17,1.07-2.54,1.07-4h6h4.17h0.01C27.06,53.298,27,53.638,27,53.988z" style="fill:#CCD1D9;"/></g><g><path d="M41,44.988c4.42,0,8,3.58,8,8s-3.58,8-8,8c-2.96,0-5.55-1.61-6.93-4H38h3c2.21,0,4-1.79,4-4     s-1.79-4-4-4c-1.48,0-2.77,0.8-3.46,2h-4.29C34.14,47.538,37.27,44.988,41,44.988z" style="fill:#969FAA;"/></g><g><path d="M17,52.988h-4H5H1c0-3.82,2.67-7.01,6.25-7.81c0.56-0.12,1.15-0.19,1.75-0.19     C13.42,44.988,17,48.568,17,52.988z" style="fill:#AAB2BD;"/></g><g><path d="M13,52.988h4c0,1.46-0.39,2.83-1.07,4c-1.38,2.39-3.97,4-6.93,4c-4.42,0-8-3.58-8-8h4     c0,2.21,1.79,4,4,4S13,55.198,13,52.988z" style="fill:#969FAA;"/></g></g><g><path d="M60.505,14.392L36.364,0.615c-1.437-0.82-3.288-0.821-4.729,0L7.489,14.397c-1.427,0.833-1.911,2.673-1.078,4.105    c0.536,0.917,1.529,1.486,2.592,1.486c0.344,0,0.677-0.08,0.997-0.194v7.193c-2.206,0-4,1.794-4,4    c0,1.988,1.461,3.628,3.364,3.936c-1.505,2.978-2.509,6.152-3.006,9.462C2.68,45.518,0,48.945,0,52.988c0,4.962,4.037,9,9,9    c3.114,0,5.862-1.59,7.478-4H30h1h2.54c1.663,2.474,4.46,4,7.46,4c4.963,0,9-4.038,9-9c0-2.826-1.312-5.349-3.356-7H50    c1.103,0,2-0.897,2-2v-2c0-1.103-0.897-2-2-2v-14H34v14h-3.315c-3.219,0-6.011,2.181-6.79,5.302l-1.675,6.698H18V34.804    c1.161-0.414,2-1.514,2-2.816v-1h5c1.103,0,2-0.897,2-2v-2c0-1.103-0.897-2-2-2h-5.382c-0.703-0.615-1.612-1-2.618-1    c-1.859,0-3.411,1.28-3.858,3H12v-8.259l1.295-0.741h41.413l1.294,0.74v39.26h2V19.794c0.322,0.115,0.655,0.194,0.998,0.194    c1.062,0,2.056-0.57,2.594-1.491C62.424,17.07,61.939,15.23,60.505,14.392z M11.596,34.988H16v12.356    c-1.651-2.044-4.174-3.356-7-3.356c-0.19,0-0.376,0.017-0.563,0.029C8.987,40.847,10.05,37.819,11.596,34.988z M9,45.988    c3.519,0,6.432,2.613,6.92,6H2.08C2.568,48.602,5.481,45.988,9,45.988z M11.816,53.988c-0.414,1.161-1.514,2-2.816,2    s-2.402-0.839-2.816-2H11.816z M9,59.988c-3.519,0-6.432-2.613-6.92-6h2.021c0.465,2.279,2.484,4,4.899,4s4.434-1.721,4.899-4    h2.021C15.432,57.375,12.519,59.988,9,59.988z M17.941,53.988H26c0,0.732,0.212,1.409,0.556,2h-9.081    C17.701,55.35,17.864,54.683,17.941,53.988z M30,55.988c-1.103,0-2-0.897-2-2s0.897-2,2-2h8c1.103,0,2,0.897,2,2s-0.897,2-2,2h-7    H30z M32.512,49.988h-1.819l1.661-3.435c0.166-0.343,0.52-0.565,0.9-0.565h2.093C34.075,47.015,33.078,48.385,32.512,49.988z     M39.624,50.34c0.421-0.219,0.888-0.352,1.376-0.352c1.654,0,3,1.346,3,3c0,1.494-1.1,2.725-2.531,2.953    c0.328-0.58,0.531-1.24,0.531-1.953C42,52.362,41.021,50.965,39.624,50.34z M48,52.988c0,3.86-3.141,7-7,7    c-1.846,0-3.598-0.74-4.891-2H38h3c2.757,0,5-2.243,5-5s-2.243-5-5-5c-1.578,0-3.058,0.755-3.995,2h-2.321    c1.141-2.404,3.573-4,6.316-4C44.859,45.988,48,49.128,48,52.988z M40,27.988h4v2h-4V27.988z M36,27.988h2v4h8v-4h2v12H36V27.988z     M25.834,45.775c0.558-2.23,2.552-3.787,4.851-3.787H34h16v2H33.255c-1.143,0-2.203,0.665-2.701,1.694l-2.278,4.712    c-0.722,0.348-1.317,0.904-1.719,1.593H24.28L25.834,45.775z M25,28.988h-4.142c0.084-0.322,0.142-0.653,0.142-1    s-0.058-0.678-0.142-1H25V28.988z M17,25.988c1.103,0,2,0.897,2,2s-0.897,2-2,2s-2-0.897-2-2S15.897,25.988,17,25.988z M17,31.988    c0.347,0,0.678-0.058,1-0.142v0.142c0,0.551-0.448,1-1,1h-7c-1.103,0-2-0.897-2-2s0.897-2,2-2h3.142    C13.589,30.709,15.141,31.988,17,31.988z M16.79,15.988l17.211-9.848l17.211,9.848H16.79z M59.866,17.49    c-0.269,0.46-0.896,0.639-1.376,0.358L34.001,3.836L9.504,17.853c-0.46,0.269-1.1,0.098-1.365-0.357    c-0.277-0.478-0.117-1.093,0.351-1.365L32.627,2.353C33.045,2.114,33.52,1.988,34,1.988s0.956,0.126,1.373,0.364l24.131,13.771    C59.98,16.402,60.142,17.016,59.866,17.49z"/><path d="M31,10.988c0,1.654,1.346,3,3,3s3-1.346,3-3s-1.346-3-3-3S31,9.334,31,10.988z M35,10.988c0,0.551-0.448,1-1,1    s-1-0.449-1-1s0.448-1,1-1S35,10.437,35,10.988z"/></g></g></svg>